<svg width="134" height="20" viewBox="0 0 134 20" fill="none" xmlns="http://www.w3.org/2000/svg">
<path d="M6.112 12.4L3.856 14.752V19H-0.0079999V2.2H3.856V10.048L11.296 2.2H15.616L8.656 9.688L16.024 19H11.488L6.112 12.4ZM20.8353 7.792C21.2833 7.168 21.8833 6.696 22.6353 6.376C23.4033 6.056 24.2833 5.896 25.2753 5.896V9.352C24.8593 9.32 24.5793 9.304 24.4353 9.304C23.3633 9.304 22.5233 9.608 21.9153 10.216C21.3073 10.808 21.0033 11.704 21.0033 12.904V19H17.2593V6.088H20.8353V7.792ZM27.5014 6.088H31.2454V19H27.5014V6.088ZM29.3734 4.288C28.6854 4.288 28.1254 4.088 27.6934 3.688C27.2614 3.288 27.0454 2.792 27.0454 2.2C27.0454 1.608 27.2614 1.112 27.6934 0.711999C28.1254 0.311999 28.6854 0.111999 29.3734 0.111999C30.0614 0.111999 30.6214 0.303999 31.0534 0.688C31.4854 1.072 31.7014 1.552 31.7014 2.128C31.7014 2.752 31.4854 3.272 31.0534 3.688C30.6214 4.088 30.0614 4.288 29.3734 4.288ZM42.2562 2.2C43.7442 2.2 45.0322 2.448 46.1202 2.944C47.2242 3.44 48.0722 4.144 48.6642 5.056C49.2562 5.968 49.5522 7.048 49.5522 8.296C49.5522 9.528 49.2562 10.608 48.6642 11.536C48.0722 12.448 47.2242 13.152 46.1202 13.648C45.0322 14.128 43.7442 14.368 42.2562 14.368H38.8722V19H34.9842V2.2H42.2562ZM42.0402 11.2C43.2082 11.2 44.0962 10.952 44.7042 10.456C45.3122 9.944 45.6162 9.224 45.6162 8.296C45.6162 7.352 45.3122 6.632 44.7042 6.136C44.0962 5.624 43.2082 5.368 42.0402 5.368H38.8722V11.2H42.0402ZM65.1445 6.088V19H61.5685V17.512C60.6405 18.632 59.2965 19.192 57.5365 19.192C56.3205 19.192 55.2165 18.92 54.2245 18.376C53.2485 17.832 52.4805 17.056 51.9205 16.048C51.3605 15.04 51.0805 13.872 51.0805 12.544C51.0805 11.216 51.3605 10.048 51.9205 9.04C52.4805 8.032 53.2485 7.256 54.2245 6.712C55.2165 6.168 56.3205 5.896 57.5365 5.896C59.1845 5.896 60.4725 6.416 61.4005 7.456V6.088H65.1445ZM58.1845 16.12C59.1285 16.12 59.9125 15.8 60.5365 15.16C61.1605 14.504 61.4725 13.632 61.4725 12.544C61.4725 11.456 61.1605 10.592 60.5365 9.952C59.9125 9.296 59.1285 8.968 58.1845 8.968C57.2245 8.968 56.4325 9.296 55.8085 9.952C55.1845 10.592 54.8725 11.456 54.8725 12.544C54.8725 13.632 55.1845 14.504 55.8085 15.16C56.4325 15.8 57.2245 16.12 58.1845 16.12Z" fill="#1E1E1E"/>
<path d="M100.656 2.2V12.112C100.656 14.448 100.024 16.232 98.7597 17.464C97.4957 18.68 95.7037 19.288 93.3837 19.288C92.2317 19.288 91.1997 19.12 90.2877 18.784C89.3917 18.448 88.6557 17.976 88.0797 17.368C87.4877 17.976 86.7437 18.448 85.8477 18.784C84.9517 19.12 83.9357 19.288 82.7997 19.288C80.4797 19.288 78.6877 18.68 77.4237 17.464C76.1597 16.232 75.5277 14.448 75.5277 12.112V2.2H79.4157V11.992C79.4157 13.352 79.6957 14.36 80.2557 15.016C80.8157 15.656 81.6477 15.976 82.7517 15.976C85.0077 15.976 86.1357 14.648 86.1357 11.992V2.2H90.0237V11.992C90.0237 14.648 91.1597 15.976 93.4317 15.976C95.6397 15.976 96.7437 14.648 96.7437 11.992V2.2H100.656ZM110.74 16.192C111.412 16.192 112.004 16.096 112.516 15.904C113.044 15.696 113.532 15.376 113.98 14.944L115.972 17.104C114.756 18.496 112.98 19.192 110.644 19.192C109.188 19.192 107.9 18.912 106.78 18.352C105.66 17.776 104.796 16.984 104.188 15.976C103.58 14.968 103.276 13.824 103.276 12.544C103.276 11.28 103.572 10.144 104.164 9.136C104.772 8.112 105.596 7.32 106.636 6.76C107.692 6.184 108.876 5.896 110.188 5.896C111.42 5.896 112.54 6.16 113.548 6.688C114.556 7.2 115.356 7.952 115.948 8.944C116.556 9.92 116.86 11.08 116.86 12.424L107.308 14.272C107.58 14.912 108.004 15.392 108.58 15.712C109.172 16.032 109.892 16.192 110.74 16.192ZM110.188 8.728C109.244 8.728 108.476 9.032 107.884 9.64C107.292 10.248 106.98 11.088 106.948 12.16L113.236 10.936C113.06 10.264 112.7 9.728 112.156 9.328C111.612 8.928 110.956 8.728 110.188 8.728ZM127.008 5.896C128.208 5.896 129.296 6.176 130.272 6.736C131.264 7.28 132.04 8.056 132.6 9.064C133.16 10.056 133.44 11.216 133.44 12.544C133.44 13.872 133.16 15.04 132.6 16.048C132.04 17.04 131.264 17.816 130.272 18.376C129.296 18.92 128.208 19.192 127.008 19.192C125.232 19.192 123.88 18.632 122.952 17.512V19H119.376V1.192H123.12V7.456C124.064 6.416 125.36 5.896 127.008 5.896ZM126.36 16.12C127.32 16.12 128.104 15.8 128.712 15.16C129.336 14.504 129.648 13.632 129.648 12.544C129.648 11.456 129.336 10.592 128.712 9.952C128.104 9.296 127.32 8.968 126.36 8.968C125.4 8.968 124.608 9.296 123.984 9.952C123.376 10.592 123.072 11.456 123.072 12.544C123.072 13.632 123.376 14.504 123.984 15.16C124.608 15.8 125.4 16.12 126.36 16.12Z" fill="#5725F6"/>
</svg>
