<svg width="180" height="180" viewBox="0 0 180 180" fill="none" xmlns="http://www.w3.org/2000/svg">
<rect width="180" height="180" rx="90" fill="#F6F6F6"/>
<path d="M37.224 64.8L32.712 69.504V78H24.984V44.4H32.712V60.096L47.592 44.4H56.232L42.312 59.376L57.048 78H47.976L37.224 64.8ZM66.6705 55.584C67.5665 54.336 68.7665 53.392 70.2705 52.752C71.8065 52.112 73.5665 51.792 75.5505 51.792V58.704C74.7185 58.64 74.1585 58.608 73.8705 58.608C71.7265 58.608 70.0465 59.216 68.8305 60.432C67.6145 61.616 67.0065 63.408 67.0065 65.808V78H59.5185V52.176H66.6705V55.584ZM80.0029 52.176H87.4909V78H80.0029V52.176ZM83.7469 48.576C82.3709 48.576 81.2509 48.176 80.3869 47.376C79.5229 46.576 79.0909 45.584 79.0909 44.4C79.0909 43.216 79.5229 42.224 80.3869 41.424C81.2509 40.624 82.3709 40.224 83.7469 40.224C85.1229 40.224 86.2429 40.608 87.1069 41.376C87.9709 42.144 88.4029 43.104 88.4029 44.256C88.4029 45.504 87.9709 46.544 87.1069 47.376C86.2429 48.176 85.1229 48.576 83.7469 48.576ZM109.512 44.4C112.488 44.4 115.064 44.896 117.24 45.888C119.448 46.88 121.144 48.288 122.328 50.112C123.512 51.936 124.104 54.096 124.104 56.592C124.104 59.056 123.512 61.216 122.328 63.072C121.144 64.896 119.448 66.304 117.24 67.296C115.064 68.256 112.488 68.736 109.512 68.736H102.744V78H94.9684V44.4H109.512ZM109.08 62.4C111.416 62.4 113.192 61.904 114.408 60.912C115.624 59.888 116.232 58.448 116.232 56.592C116.232 54.704 115.624 53.264 114.408 52.272C113.192 51.248 111.416 50.736 109.08 50.736H102.744V62.4H109.08ZM155.289 52.176V78H148.137V75.024C146.281 77.264 143.593 78.384 140.073 78.384C137.641 78.384 135.433 77.84 133.449 76.752C131.497 75.664 129.961 74.112 128.841 72.096C127.721 70.08 127.161 67.744 127.161 65.088C127.161 62.432 127.721 60.096 128.841 58.08C129.961 56.064 131.497 54.512 133.449 53.424C135.433 52.336 137.641 51.792 140.073 51.792C143.369 51.792 145.945 52.832 147.801 54.912V52.176H155.289ZM141.369 72.24C143.257 72.24 144.825 71.6 146.073 70.32C147.321 69.008 147.945 67.264 147.945 65.088C147.945 62.912 147.321 61.184 146.073 59.904C144.825 58.592 143.257 57.936 141.369 57.936C139.449 57.936 137.865 58.592 136.617 59.904C135.369 61.184 134.745 62.912 134.745 65.088C134.745 67.264 135.369 69.008 136.617 70.32C137.865 71.6 139.449 72.24 141.369 72.24Z" fill="#1E1E1E"/>
<path d="M82.952 103.4V123.224C82.952 127.896 81.688 131.464 79.16 133.928C76.632 136.36 73.048 137.576 68.408 137.576C66.104 137.576 64.04 137.24 62.216 136.568C60.424 135.896 58.952 134.952 57.8 133.736C56.616 134.952 55.128 135.896 53.336 136.568C51.544 137.24 49.512 137.576 47.24 137.576C42.6 137.576 39.016 136.36 36.488 133.928C33.96 131.464 32.696 127.896 32.696 123.224V103.4H40.472V122.984C40.472 125.704 41.032 127.72 42.152 129.032C43.272 130.312 44.936 130.952 47.144 130.952C51.656 130.952 53.912 128.296 53.912 122.984V103.4H61.688V122.984C61.688 128.296 63.96 130.952 68.504 130.952C72.92 130.952 75.128 128.296 75.128 122.984V103.4H82.952ZM103.12 131.384C104.464 131.384 105.648 131.192 106.672 130.808C107.728 130.392 108.704 129.752 109.6 128.888L113.584 133.208C111.152 135.992 107.6 137.384 102.928 137.384C100.016 137.384 97.4403 136.824 95.2003 135.704C92.9603 134.552 91.2323 132.968 90.0163 130.952C88.8003 128.936 88.1923 126.648 88.1923 124.088C88.1923 121.56 88.7843 119.288 89.9683 117.272C91.1843 115.224 92.8323 113.64 94.9123 112.52C97.0243 111.368 99.3923 110.792 102.016 110.792C104.48 110.792 106.72 111.32 108.736 112.376C110.752 113.4 112.352 114.904 113.536 116.888C114.752 118.84 115.36 121.16 115.36 123.848L96.2563 127.544C96.8003 128.824 97.6483 129.784 98.8003 130.424C99.9843 131.064 101.424 131.384 103.12 131.384ZM102.016 116.456C100.128 116.456 98.5923 117.064 97.4083 118.28C96.2243 119.496 95.6003 121.176 95.5363 123.32L108.112 120.872C107.76 119.528 107.04 118.456 105.952 117.656C104.864 116.856 103.552 116.456 102.016 116.456ZM135.658 110.792C138.058 110.792 140.234 111.352 142.186 112.472C144.17 113.56 145.722 115.112 146.842 117.128C147.962 119.112 148.522 121.432 148.522 124.088C148.522 126.744 147.962 129.08 146.842 131.096C145.722 133.08 144.17 134.632 142.186 135.752C140.234 136.84 138.058 137.384 135.658 137.384C132.106 137.384 129.402 136.264 127.546 134.024V137H120.394V101.384H127.882V113.912C129.77 111.832 132.362 110.792 135.658 110.792ZM134.362 131.24C136.282 131.24 137.85 130.6 139.066 129.32C140.314 128.008 140.938 126.264 140.938 124.088C140.938 121.912 140.314 120.184 139.066 118.904C137.85 117.592 136.282 116.936 134.362 116.936C132.442 116.936 130.858 117.592 129.609 118.904C128.394 120.184 127.786 121.912 127.786 124.088C127.786 126.264 128.394 128.008 129.609 129.32C130.858 130.6 132.442 131.24 134.362 131.24Z" fill="#5725F6"/>
</svg>
